<svg xmlns="http://www.w3.org/2000/svg" viewBox="0 0 64.65 64.65"><defs><style>.cls-1{fill:none;stroke:#f4f5f7;stroke-miterlimit:10;stroke-width:0.85px;}.cls-1,.cls-2{opacity:0.3;}.cls-3{fill:#f4f5f7;}.cls-4{fill:#fff;}</style></defs><title>Asset 8</title><g id="Layer_2" data-name="Layer 2"><g id="Layer_1-2" data-name="Layer 1"><rect class="cls-1" x="0.42" y="0.42" width="63.8" height="63.8" rx="4.6"/><g class="cls-2"><path class="cls-3" d="M19,48.94H16.88a.11.11,0,0,0-.12.12v1.21a.11.11,0,0,0,.12.12h1.38a1.31,1.31,0,0,1,.81.21.8.8,0,0,1,.27.68v.64a2.06,2.06,0,0,1,0,.39.49.49,0,0,1-.12.25.5.5,0,0,1-.27.14,2.09,2.09,0,0,1-.48,0H16.38a.11.11,0,0,0-.12.12v1.21a.11.11,0,0,0,.12.12h2.9a2.78,2.78,0,0,0,.8-.1,1.23,1.23,0,0,0,.56-.34,1.45,1.45,0,0,0,.34-.63,3.84,3.84,0,0,0,.11-1v-1a2.15,2.15,0,0,0-.55-1.64A2.19,2.19,0,0,0,19,48.94Z"/><rect class="cls-3" x="22.41" y="46.03" width="1.68" height="8.16" rx="0.12"/><path class="cls-3" d="M37,52.74H34.38l-.21-.14a1.12,1.12,0,0,1-.25-.24,1.25,1.25,0,0,1-.2-.36,1.21,1.21,0,0,1-.09-.48,1.1,1.1,0,0,1,.3-.84,1,1,0,0,1,.78-.29,1.63,1.63,0,0,1,1.19.54.13.13,0,0,0,.18,0l.76-.9c.06-.07.07-.13,0-.18a2.65,2.65,0,0,0-.89-.64,3.44,3.44,0,0,0-1.45-.27,3.09,3.09,0,0,0-1.19.2,2.59,2.59,0,0,0-.83.54,2.27,2.27,0,0,0-.48.77,2.86,2.86,0,0,0-.15.92,2.39,2.39,0,0,0,.12.79,2.13,2.13,0,0,0,.32.58H31.09a1.09,1.09,0,0,1-.65-.17.62.62,0,0,1-.26-.48v-1a2.07,2.07,0,0,0-.61-1.68,2.71,2.71,0,0,0-1.72-.48H26a.11.11,0,0,0-.12.12v1.21a.11.11,0,0,0,.12.12h1.38a1.29,1.29,0,0,1,.81.21.8.8,0,0,1,.27.68v.64a3.84,3.84,0,0,1,0,.39.73.73,0,0,1-.12.25.57.57,0,0,1-.28.14,2.05,2.05,0,0,1-.47,0H25.46a.11.11,0,0,0-.12.12v1.21a.11.11,0,0,0,.12.12h2.9a2.59,2.59,0,0,0,.95-.15,1.12,1.12,0,0,0,.59-.53,1.12,1.12,0,0,0,.59.55,2.51,2.51,0,0,0,.86.13H37a.11.11,0,0,0,.12-.12V52.86A.11.11,0,0,0,37,52.74Z"/><path class="cls-3" d="M44.94,46H43.47a.11.11,0,0,0-.12.12v6a.64.64,0,0,1-.14.49.58.58,0,0,1-.43.14h-1.1V47.85a.11.11,0,0,0-.12-.12H40.1a.11.11,0,0,0-.12.12v4.89H38.07a.11.11,0,0,0-.12.12v1.21a.11.11,0,0,0,.12.12h5.58a1.38,1.38,0,0,0,1.08-.36,1.7,1.7,0,0,0,.33-1.15V46.15A.11.11,0,0,0,44.94,46Z"/><path class="cls-3" d="M40.94,56.87a1.12,1.12,0,0,1-.25-.24.67.67,0,0,1-.11-.37.56.56,0,0,1,.14-.39.54.54,0,0,1,.38-.14.77.77,0,0,1,.56.27s.08,0,.12,0l.36-.37a.08.08,0,0,0,0-.11,1.2,1.2,0,0,0-.44-.34,1.49,1.49,0,0,0-.66-.14,1.79,1.79,0,0,0-.6.1,1.15,1.15,0,0,0-.4.28,1.28,1.28,0,0,0-.31.82,1.23,1.23,0,0,0,0,.35,1.26,1.26,0,0,0,.12.29h-.45a.07.07,0,0,0-.07.08v.54c0,.06,0,.09.07.09h2.68s.07,0,.07-.09V57c0-.05,0-.08-.07-.08Z"/><rect class="cls-3" x="46.5" y="46.03" width="1.68" height="8.16" rx="0.12"/></g><g class="cls-2"><path class="cls-4" d="M32.32,33.36a8.57,8.57,0,1,0-8.56-8.57A8.58,8.58,0,0,0,32.32,33.36Zm0-1.91A6.57,6.57,0,0,1,28.21,30a4.76,4.76,0,0,1,8.23,0A6.58,6.58,0,0,1,32.32,31.45Zm-1.9-7.61a1.91,1.91,0,1,1,1.9,1.91A1.91,1.91,0,0,1,30.42,23.84Zm1.9-5.71A6.66,6.66,0,0,1,39,24.79a6.59,6.59,0,0,1-1.19,3.8,6.62,6.62,0,0,0-2.63-2.21,3.81,3.81,0,1,0-5.67,0,6.62,6.62,0,0,0-2.63,2.21,6.6,6.6,0,0,1-1.2-3.8A6.67,6.67,0,0,1,32.32,18.13Z"/><path class="cls-4" d="M16.89,27.64l2.52.41a13.15,13.15,0,0,0,1.48,3.57l-1.45,2a1,1,0,0,0,.1,1.23l2.69,2.69a1,1,0,0,0,1.23.1l2-1.46a13.37,13.37,0,0,0,3.58,1.49l.41,2.52a1,1,0,0,0,.94.8h3.81a1,1,0,0,0,.94-.8l.41-2.52a13.17,13.17,0,0,0,3.57-1.49l2,1.46a1,1,0,0,0,1.23-.1l2.69-2.69a1,1,0,0,0,.1-1.23l-1.46-2a13.17,13.17,0,0,0,1.49-3.57l2.52-.41a1,1,0,0,0,.8-.94V22.89a1,1,0,0,0-.8-.94l-2.52-.41A13.37,13.37,0,0,0,43.75,18l1.46-2a1,1,0,0,0-.1-1.23L42.42,12a1,1,0,0,0-1.23-.1l-2,1.45a13.15,13.15,0,0,0-3.57-1.48l-.41-2.53a1,1,0,0,0-.94-.79H30.42a1,1,0,0,0-.94.79l-.41,2.53a13.34,13.34,0,0,0-3.58,1.48l-2-1.45a1,1,0,0,0-1.23.1L19.54,14.7a1,1,0,0,0-.1,1.23l1.45,2a13.34,13.34,0,0,0-1.48,3.58L16.88,22a1,1,0,0,0-.79.94V26.7A1,1,0,0,0,16.89,27.64ZM18,23.7l2.36-.39a1,1,0,0,0,.78-.75,11.37,11.37,0,0,1,1.7-4.1,1,1,0,0,0,0-1.08l-1.36-1.9L23,13.93l1.9,1.36a1,1,0,0,0,1.08,0,11.37,11.37,0,0,1,4.1-1.7,1,1,0,0,0,.75-.78l.39-2.36h2.19l.38,2.36a1,1,0,0,0,.76.78,11.37,11.37,0,0,1,4.1,1.7,1,1,0,0,0,1.08,0l1.9-1.36,1.55,1.55-1.36,1.9a1,1,0,0,0,0,1.08,11.37,11.37,0,0,1,1.7,4.1,1,1,0,0,0,.78.75l2.36.39v2.19l-2.36.38a1,1,0,0,0-.78.76,11.37,11.37,0,0,1-1.7,4.1,1,1,0,0,0,0,1.08l1.36,1.9-1.55,1.55-1.9-1.36a1,1,0,0,0-1.08,0,11.37,11.37,0,0,1-4.1,1.7,1,1,0,0,0-.76.78l-.38,2.36H31.23l-.39-2.36a1,1,0,0,0-.75-.78,11.37,11.37,0,0,1-4.1-1.7,1,1,0,0,0-1.08,0L23,35.66l-1.55-1.55,1.36-1.9a1,1,0,0,0,0-1.08,11.37,11.37,0,0,1-1.7-4.1,1,1,0,0,0-.78-.76L18,25.89Z"/></g></g></g></svg>