<svg xmlns="http://www.w3.org/2000/svg" viewBox="0 0 63.8 63.8"><defs><style>.cls-1{fill:#fff;}.cls-2{fill:#ea630d;}</style></defs><title>Asset 12</title><g id="Layer_2" data-name="Layer 2"><g id="Layer_1-2" data-name="Layer 1"><rect class="cls-1" width="63.8" height="63.8" rx="4.6"/><rect class="cls-2" x="16.74" y="56.29" width="1.44" height="1.42" rx="0.12"/><rect class="cls-2" x="18.59" y="56.29" width="1.45" height="1.42" rx="0.12"/><rect class="cls-2" x="25.37" y="45.32" width="1.45" height="1.42" rx="0.12"/><rect class="cls-2" x="23.52" y="45.32" width="1.44" height="1.42" rx="0.12"/><path class="cls-2" d="M26,48H24.53a.11.11,0,0,0-.12.12v2.84a.71.71,0,0,1-.14.5.61.61,0,0,1-.44.14H21.67a2.84,2.84,0,0,1-.66-.07,5.31,5.31,0,0,1-.65-.19c-.21-.07-.43-.16-.66-.26s-.46-.19-.72-.28c-.07,0-.12,0-.14.08L18.45,52a.1.1,0,0,0,.08.14l1,.39c.29.11.52.21.7.3a1.38,1.38,0,0,1,.38.28.47.47,0,0,1,.12.32.42.42,0,0,1-.06.21.43.43,0,0,1-.18.17,1,1,0,0,1-.37.11,3.49,3.49,0,0,1-.61.05h-2a3.36,3.36,0,0,1-.63-.06,1.78,1.78,0,0,1-.57-.22,1.13,1.13,0,0,1-.41-.43,1.37,1.37,0,0,1-.17-.7,2.21,2.21,0,0,1,.15-.79,4.08,4.08,0,0,1,.34-.73.1.1,0,0,0,0-.16L15,50.29c-.08,0-.14,0-.18,0a5.54,5.54,0,0,0-.53,1.09A4,4,0,0,0,14,52.74a3.15,3.15,0,0,0,.19,1.13,2.21,2.21,0,0,0,.59.85,2.73,2.73,0,0,0,1,.55,4.88,4.88,0,0,0,1.46.19H20A3,3,0,0,0,21.9,55a1.53,1.53,0,0,0,.61-1.25,1.18,1.18,0,0,0-.07-.43,2.14,2.14,0,0,0-.13-.29h2.38a1.41,1.41,0,0,0,1.08-.36,1.75,1.75,0,0,0,.32-1.15V48.07A.11.11,0,0,0,26,48Z"/><path class="cls-2" d="M39.41,48H37.94a.11.11,0,0,0-.12.12v2.62c0,.16,0,.29,0,.4a.62.62,0,0,1-.07.26.34.34,0,0,1-.18.15,1,1,0,0,1-.35,0,1.16,1.16,0,0,1-.56-.13.54.54,0,0,1-.24-.53v-2a.11.11,0,0,0-.12-.12H34.82a.11.11,0,0,0-.12.12V50.7a2.36,2.36,0,0,1,0,.4.62.62,0,0,1-.07.26.38.38,0,0,1-.2.14,1.22,1.22,0,0,1-.37,0,1.07,1.07,0,0,1-.53-.13.54.54,0,0,1-.24-.52v-2a.11.11,0,0,0-.12-.12H31.69a.11.11,0,0,0-.12.12v1.8a1.4,1.4,0,0,1-.1.65c-.06.11-.21.17-.44.17H29.89a.61.61,0,0,1-.44-.14.71.71,0,0,1-.14-.5V45c0-.08,0-.12-.11-.12H27.75a.11.11,0,0,0-.12.12v6.53A1.7,1.7,0,0,0,28,52.64,1.37,1.37,0,0,0,29,53h2.64a2.9,2.9,0,0,0,.94-.12.91.91,0,0,0,.51-.51,1.17,1.17,0,0,0,.45.46,1.6,1.6,0,0,0,.77.17h.47a2.63,2.63,0,0,0,.93-.13.93.93,0,0,0,.51-.5,1.17,1.17,0,0,0,.45.46,1.55,1.55,0,0,0,.76.17h.66a1.38,1.38,0,0,0,1.08-.36,1.7,1.7,0,0,0,.33-1.15V48.07A.11.11,0,0,0,39.41,48Z"/><path class="cls-2" d="M49.6,49.1a1.57,1.57,0,0,0-.49-.72,1.82,1.82,0,0,0-.79-.38,5.83,5.83,0,0,0-1.1-.13L49,45.78a.13.13,0,0,0-.05-.17l-1-.84s-.1,0-.15,0l-2.55,3-.16.18a.27.27,0,0,0-.1.19v1a.11.11,0,0,0,.12.12h1.8a1.22,1.22,0,0,1,.82.22.85.85,0,0,1,.26.69v.56a2.06,2.06,0,0,1,0,.39.4.4,0,0,1-.13.25.48.48,0,0,1-.27.12,2.05,2.05,0,0,1-.47,0h-3a1.15,1.15,0,0,1-.66-.17.64.64,0,0,1-.25-.48V48.07a.11.11,0,0,0-.12-.12H41.66a.11.11,0,0,0-.12.12v4.39c0,.25,0,.47,0,.66a1.6,1.6,0,0,1-.12.49.66.66,0,0,1-.27.3,1,1,0,0,1-.5.1h-.26a.11.11,0,0,0-.12.12v1.21a.11.11,0,0,0,.12.12h.55a2.2,2.2,0,0,0,1.8-.65,3.21,3.21,0,0,0,.53-2v-.2a.9.9,0,0,0,.49.33,2.31,2.31,0,0,0,.68.08H48a2.78,2.78,0,0,0,.8-.1,1.3,1.3,0,0,0,.56-.33,1.58,1.58,0,0,0,.34-.63,3.9,3.9,0,0,0,.11-1v-.71A3.43,3.43,0,0,0,49.6,49.1Z"/><path class="cls-2" d="M17.58,25.42H46.29a1.07,1.07,0,0,0,1.07-1.07V9.14a1.07,1.07,0,0,0-1.07-1.07H17.58A1.08,1.08,0,0,0,16.5,9.14V24.35a1.08,1.08,0,0,0,1.08,1.07Zm1.07-15.2H45.21V23.27H18.65Z"/><path class="cls-2" d="M31.93,10.6a6.15,6.15,0,1,0,6.15,6.15,6.16,6.16,0,0,0-6.15-6.15Zm0,10.14a4,4,0,1,1,4-4,4,4,0,0,1-4,4Z"/><path class="cls-2" d="M33.37,16.33,31,14.88a.49.49,0,0,0-.74.42v2.9a.48.48,0,0,0,.49.48.45.45,0,0,0,.25-.07l2.36-1.45a.49.49,0,0,0,0-.83Z"/><path class="cls-2" d="M35.4,33.71a4.46,4.46,0,1,0-6.93,0,5.27,5.27,0,0,0-1.8,4,1.08,1.08,0,0,0,1.08,1.08h8.37a1.08,1.08,0,0,0,1.08-1.08,5.27,5.27,0,0,0-1.8-4Zm-3.47-5.1a2.31,2.31,0,1,1-2.3,2.3,2.31,2.31,0,0,1,2.3-2.3ZM29,36.6A3.17,3.17,0,0,1,30.27,35a4.35,4.35,0,0,0,1.66.33A4.4,4.4,0,0,0,33.6,35a3.17,3.17,0,0,1,1.26,1.56Z"/><path class="cls-2" d="M46.34,33.71a4.45,4.45,0,1,0-7.92-2.8,4.5,4.5,0,0,0,1,2.8,5.27,5.27,0,0,0-1.8,4,1.08,1.08,0,0,0,1.08,1.08h8.38a1.08,1.08,0,0,0,1.07-1.08,5.24,5.24,0,0,0-1.8-4Zm-3.46-5.1a2.31,2.31,0,1,1-2.3,2.3,2.3,2.3,0,0,1,2.3-2.3ZM40,36.6A3.1,3.1,0,0,1,41.21,35a4.39,4.39,0,0,0,3.34,0A3.15,3.15,0,0,1,45.8,36.6Z"/><path class="cls-2" d="M24.39,33.71a4.46,4.46,0,1,0-6.93,0,5.27,5.27,0,0,0-1.8,4,1.08,1.08,0,0,0,1.08,1.08h8.37a1.08,1.08,0,0,0,1.08-1.08,5.27,5.27,0,0,0-1.8-4Zm-3.47-5.1a2.31,2.31,0,1,1-2.3,2.3,2.31,2.31,0,0,1,2.3-2.3ZM18,36.6A3.12,3.12,0,0,1,19.26,35a4.35,4.35,0,0,0,1.66.33A4.4,4.4,0,0,0,22.59,35a3.1,3.1,0,0,1,1.25,1.56Z"/></g></g></svg>