<svg xmlns="http://www.w3.org/2000/svg" viewBox="0 0 64.65 64.65"><defs><style>.cls-1{fill:none;stroke:#f4f5f7;stroke-miterlimit:10;stroke-width:0.85px;}.cls-1,.cls-2,.cls-4{opacity:0.3;}.cls-3,.cls-4{fill:#f4f5f7;}</style></defs><title>Asset 9</title><g id="Layer_2" data-name="Layer 2"><g id="Layer_1-2" data-name="Layer 1"><rect class="cls-1" x="0.42" y="0.42" width="63.8" height="63.8" rx="4.6"/><g class="cls-2"><rect class="cls-3" x="12.9" y="45.84" width="1.44" height="1.42" rx="0.12"/><rect class="cls-3" x="14.75" y="45.84" width="1.45" height="1.42" rx="0.12"/><path class="cls-3" d="M31.26,48.94H29.79a.11.11,0,0,0-.12.12v2.62c0,.16,0,.29,0,.4a.67.67,0,0,1-.07.27.45.45,0,0,1-.18.15,1.08,1.08,0,0,1-.35,0,1.28,1.28,0,0,1-.56-.12.55.55,0,0,1-.24-.54v-2a.11.11,0,0,0-.12-.12H26.67a.11.11,0,0,0-.12.12v1.76c0,.16,0,.3,0,.4a.73.73,0,0,1-.08.26.39.39,0,0,1-.2.15,1.22,1.22,0,0,1-.37,0,1,1,0,0,1-.52-.13.53.53,0,0,1-.24-.51v-2a.11.11,0,0,0-.12-.12H23.54a.11.11,0,0,0-.12.12v1.8a1.57,1.57,0,0,1-.09.64c-.07.12-.22.17-.45.17H21.81a1.13,1.13,0,0,1-.66-.16.67.67,0,0,1-.25-.48V46a.11.11,0,0,0-.12-.12H19.32a.11.11,0,0,0-.12.12v5.49c0,.18,0,.33,0,.47a1,1,0,0,1-.07.34.44.44,0,0,1-.17.21.62.62,0,0,1-.33.07H18.2l0,0-.06,0h-.38a.58.58,0,0,1-.43-.13.68.68,0,0,1-.14-.5V48.22A.11.11,0,0,0,17,48.1H15.57a.11.11,0,0,0-.12.12v.52h-1.2a3.8,3.8,0,0,0-.89.11,2.07,2.07,0,0,0-.78.4A2,2,0,0,0,12,50a3.41,3.41,0,0,0,0,2.27,2,2,0,0,0,.51.72,2.28,2.28,0,0,0,.75.41,3,3,0,0,0,.9.13,2.53,2.53,0,0,0,.73-.11,1.78,1.78,0,0,0,.61-.32,1,1,0,0,0,.44.7,1.94,1.94,0,0,0,.92.19h2.42a2.88,2.88,0,0,0,.93-.13.92.92,0,0,0,.52-.47,1,1,0,0,0,.57.49,2.85,2.85,0,0,0,.77.11h1.45a3,3,0,0,0,.95-.13.87.87,0,0,0,.5-.51,1.11,1.11,0,0,0,.45.46,1.51,1.51,0,0,0,.77.18h.47a2.6,2.6,0,0,0,.93-.14.87.87,0,0,0,.51-.5,1.24,1.24,0,0,0,.45.46,1.45,1.45,0,0,0,.76.18H30a1.38,1.38,0,0,0,1.08-.37,1.68,1.68,0,0,0,.33-1.15V49.06A.11.11,0,0,0,31.26,48.94ZM15.45,51a1.11,1.11,0,0,1-.26.81,1,1,0,0,1-.73.26,1.19,1.19,0,0,1-.69-.2.8.8,0,0,1-.27-.69,1,1,0,0,1,.27-.79,1.13,1.13,0,0,1,.73-.22h.95Z"/><rect class="cls-3" x="32.79" y="45.84" width="1.68" height="8.16" rx="0.12"/><path class="cls-3" d="M49.44,45.84H48a.11.11,0,0,0-.12.12v5.95a.73.73,0,0,1-.13.5.63.63,0,0,1-.44.13h-.75a.74.74,0,0,1-.51-.18.84.84,0,0,1-.23-.58.76.76,0,0,1,0-.15v-.17a2.67,2.67,0,0,0-.72-2,3.21,3.21,0,0,0-3.9,0,2.42,2.42,0,0,0-.68,1.84v.24a1.35,1.35,0,0,1-.25.86.68.68,0,0,1-.5.22h-.61a1,1,0,0,1-.65-.17.63.63,0,0,1-.26-.47V49.06a.11.11,0,0,0-.12-.12H36.65a.11.11,0,0,0-.12.12v4.4q0,.36,0,.66a1.31,1.31,0,0,1-.11.48.66.66,0,0,1-.27.3,1,1,0,0,1-.51.1h-.26a.11.11,0,0,0-.12.12v1.22a.11.11,0,0,0,.12.12h.55a2.17,2.17,0,0,0,1.8-.66,3.19,3.19,0,0,0,.53-2v-.19a.94.94,0,0,0,.49.33,2.73,2.73,0,0,0,.69.08l.4,0a2,2,0,0,0,.47-.09,2.16,2.16,0,0,0,.45-.19,1,1,0,0,0,.34-.35,1.93,1.93,0,0,0,.9.57,4,4,0,0,0,1.17.16,4.19,4.19,0,0,0,1.2-.17,2,2,0,0,0,.91-.61,1.24,1.24,0,0,0,.33.38,1.77,1.77,0,0,0,.41.21,1.8,1.8,0,0,0,.45.09h1.71a1.38,1.38,0,0,0,1.08-.37,1.68,1.68,0,0,0,.33-1.15V46A.11.11,0,0,0,49.44,45.84Zm-5.56,6.52a1.15,1.15,0,0,1-1.48,0,1.46,1.46,0,0,1-.25-1c0-.8.33-1.21,1-1.21s1,.41,1,1.21A1.46,1.46,0,0,1,43.88,52.36Z"/><rect class="cls-3" x="51" y="45.84" width="1.68" height="8.16" rx="0.12"/></g><path class="cls-4" d="M47.35,33.16a10.93,10.93,0,0,0,1.06-4.72,11.08,11.08,0,0,0-10.57-11,11.08,11.08,0,0,0-21.75,2.95,10.92,10.92,0,0,0,1.05,4.72l-1,5.2a.94.94,0,0,0,1.11,1.11l5.26-1a10.56,10.56,0,0,0,4.17,1,11.07,11.07,0,0,0,15.37,7c5.76,1.14,5.31,1.06,5.44,1.06a1,1,0,0,0,.93-1.13ZM23,28.52a1,1,0,0,0-.62-.09l-4.18.83.82-4.12a.89.89,0,0,0-.08-.62,9.05,9.05,0,0,1-1-4.16,9.19,9.19,0,0,1,17.91-2.88,11.06,11.06,0,0,0-9.59,12A9.08,9.08,0,0,1,23,28.52Zm22.39,4.7.82,4.12-4.18-.83a.92.92,0,0,0-.61.09,9,9,0,1,1,4.06-4,1,1,0,0,0-.09.62Z"/></g></g></svg>