<svg xmlns="http://www.w3.org/2000/svg" viewBox="0 0 64.65 64.65"><defs><style>.cls-1,.cls-3{opacity:0.3;}.cls-2{fill:#f4f5f7;}.cls-3{fill:none;stroke:#f4f5f7;stroke-miterlimit:10;stroke-width:0.85px;}</style></defs><title>Asset 11</title><g id="Layer_2" data-name="Layer 2"><g id="Layer_1-2" data-name="Layer 1"><g class="cls-1"><rect class="cls-2" x="17.16" y="56.71" width="1.44" height="1.42" rx="0.12"/><rect class="cls-2" x="19.01" y="56.71" width="1.45" height="1.42" rx="0.12"/><rect class="cls-2" x="25.79" y="45.75" width="1.45" height="1.42" rx="0.12"/><rect class="cls-2" x="23.94" y="45.75" width="1.44" height="1.42" rx="0.12"/><path class="cls-2" d="M26.39,48.37H25a.11.11,0,0,0-.12.12v2.85a.73.73,0,0,1-.14.5.61.61,0,0,1-.44.13H22.1a2.87,2.87,0,0,1-.67-.07c-.21,0-.43-.11-.64-.18l-.66-.26-.72-.29a.11.11,0,0,0-.15.08l-.38,1.19a.11.11,0,0,0,.07.15L20,53a4.7,4.7,0,0,1,.69.3,1.24,1.24,0,0,1,.38.27.47.47,0,0,1,.12.32.54.54,0,0,1-.05.21.4.4,0,0,1-.19.17,1.23,1.23,0,0,1-.37.12,3.39,3.39,0,0,1-.6,0H18a3.36,3.36,0,0,1-.63-.06,1.56,1.56,0,0,1-.58-.22,1.21,1.21,0,0,1-.41-.43,1.31,1.31,0,0,1-.16-.69,2.25,2.25,0,0,1,.14-.8,4.46,4.46,0,0,1,.35-.73.09.09,0,0,0,0-.15l-1.22-.62c-.08,0-.13,0-.17,0a5.37,5.37,0,0,0-.54,1.1,3.93,3.93,0,0,0-.23,1.31,3.35,3.35,0,0,0,.19,1.13,2.16,2.16,0,0,0,.6.86,2.75,2.75,0,0,0,1,.54,4.88,4.88,0,0,0,1.47.2h2.67a3,3,0,0,0,1.92-.5,1.53,1.53,0,0,0,.61-1.24,1.49,1.49,0,0,0-.21-.72h2.39a1.38,1.38,0,0,0,1.07-.37,1.74,1.74,0,0,0,.32-1.15V48.49A.11.11,0,0,0,26.39,48.37Z"/><path class="cls-2" d="M39.83,48.37H38.37a.11.11,0,0,0-.12.12v2.62c0,.16,0,.29,0,.4a.54.54,0,0,1-.07.27.45.45,0,0,1-.18.15,1,1,0,0,1-.35,0,1.23,1.23,0,0,1-.55-.12.54.54,0,0,1-.25-.54v-2a.11.11,0,0,0-.12-.12H35.25a.11.11,0,0,0-.12.12v1.76c0,.16,0,.3,0,.4a.57.57,0,0,1-.08.26.39.39,0,0,1-.2.15,1.19,1.19,0,0,1-.36,0,1,1,0,0,1-.53-.13.53.53,0,0,1-.24-.51v-2a.11.11,0,0,0-.12-.12H32.11a.11.11,0,0,0-.12.12v1.8a1.57,1.57,0,0,1-.09.64c-.07.12-.21.17-.45.17H30.31a.58.58,0,0,1-.43-.13.68.68,0,0,1-.14-.5v-6a.11.11,0,0,0-.12-.12H28.18a.11.11,0,0,0-.12.12v6.52a1.74,1.74,0,0,0,.32,1.15,1.37,1.37,0,0,0,1.07.37h2.64A2.93,2.93,0,0,0,33,53.3a.87.87,0,0,0,.5-.51,1.2,1.2,0,0,0,.46.46,1.46,1.46,0,0,0,.77.18h.46a2.52,2.52,0,0,0,.93-.14.87.87,0,0,0,.51-.5,1.24,1.24,0,0,0,.45.46,1.46,1.46,0,0,0,.77.18h.66a1.41,1.41,0,0,0,1.08-.37A1.74,1.74,0,0,0,40,51.91V48.49A.11.11,0,0,0,39.83,48.37Z"/><path class="cls-2" d="M50,49.52a1.61,1.61,0,0,0-.48-.72,1.86,1.86,0,0,0-.8-.38,6.65,6.65,0,0,0-1.1-.13l1.8-2.09a.12.12,0,0,0,0-.17l-1-.84a.12.12,0,0,0-.16,0l-2.54,3-.17.19a.3.3,0,0,0-.1.18v1a.11.11,0,0,0,.12.12h1.8a1.33,1.33,0,0,1,.83.21.88.88,0,0,1,.25.7v.55a2.25,2.25,0,0,1,0,.4.46.46,0,0,1-.12.24.66.66,0,0,1-.28.13,2.91,2.91,0,0,1-.47,0h-3a1,1,0,0,1-.65-.17.63.63,0,0,1-.26-.47V48.49a.11.11,0,0,0-.12-.12H42.09a.11.11,0,0,0-.12.12v4.4q0,.36,0,.66a1.31,1.31,0,0,1-.11.48.66.66,0,0,1-.27.3,1,1,0,0,1-.51.1h-.26a.11.11,0,0,0-.12.12v1.22a.11.11,0,0,0,.12.12h.55a2.17,2.17,0,0,0,1.8-.66,3.19,3.19,0,0,0,.53-2V53a.94.94,0,0,0,.49.33,2.73,2.73,0,0,0,.69.08h3.52a2.71,2.71,0,0,0,.8-.11,1.25,1.25,0,0,0,.57-.33,1.57,1.57,0,0,0,.33-.63,3.4,3.4,0,0,0,.12-1v-.71A3.44,3.44,0,0,0,50,49.52Z"/></g><rect class="cls-3" x="0.42" y="0.42" width="63.8" height="63.8" rx="4.6"/><g class="cls-1"><path class="cls-2" d="M18,25.85H46.71a1.08,1.08,0,0,0,1.08-1.08V9.57a1.08,1.08,0,0,0-1.08-1.08H18a1.07,1.07,0,0,0-1.07,1.08v15.2A1.07,1.07,0,0,0,18,25.85Zm1.08-15.21H45.64V23.7H19.08Z"/><path class="cls-2" d="M32.36,11a6.14,6.14,0,1,0,6.14,6.14A6.14,6.14,0,0,0,32.36,11Zm0,10.13a4,4,0,1,1,4-4,4,4,0,0,1-4,4Z"/><path class="cls-2" d="M33.79,16.76l-2.36-1.45a.48.48,0,0,0-.73.41v2.9A.46.46,0,0,0,31,19a.46.46,0,0,0,.23.06.43.43,0,0,0,.25-.07l2.36-1.45a.48.48,0,0,0,0-.82Z"/><path class="cls-2" d="M35.82,34.13a4.39,4.39,0,0,0,1-2.79,4.46,4.46,0,1,0-7.92,2.79,5.3,5.3,0,0,0-1.8,4,1.08,1.08,0,0,0,1.08,1.07h8.38a1.07,1.07,0,0,0,1.07-1.07,5.26,5.26,0,0,0-1.8-4ZM32.36,29a2.31,2.31,0,1,1-2.3,2.31A2.31,2.31,0,0,1,32.36,29Zm-2.92,8a3.07,3.07,0,0,1,1.25-1.55,4.52,4.52,0,0,0,3.34,0A3.13,3.13,0,0,1,35.28,37Z"/><path class="cls-2" d="M46.77,34.13a4.45,4.45,0,1,0-7.92-2.79,4.39,4.39,0,0,0,1,2.79,5.26,5.26,0,0,0-1.8,4,1.07,1.07,0,0,0,1.07,1.07h8.38a1.08,1.08,0,0,0,1.08-1.07,5.3,5.3,0,0,0-1.8-4ZM43.3,29A2.31,2.31,0,1,1,41,31.34,2.31,2.31,0,0,1,43.3,29Zm-2.92,8a3.07,3.07,0,0,1,1.25-1.55,4.52,4.52,0,0,0,3.34,0A3.07,3.07,0,0,1,46.22,37Z"/><path class="cls-2" d="M24.81,34.13a4.39,4.39,0,0,0,1-2.79,4.46,4.46,0,1,0-7.92,2.79,5.3,5.3,0,0,0-1.8,4,1.08,1.08,0,0,0,1.08,1.07h8.38a1.07,1.07,0,0,0,1.07-1.07,5.3,5.3,0,0,0-1.8-4ZM21.35,29a2.31,2.31,0,1,1-2.3,2.31A2.31,2.31,0,0,1,21.35,29Zm-2.92,8a3.07,3.07,0,0,1,1.25-1.55,4.4,4.4,0,0,0,1.67.32A4.34,4.34,0,0,0,23,35.47,3.09,3.09,0,0,1,24.27,37Z"/></g></g></g></svg>