<svg xmlns="http://www.w3.org/2000/svg" viewBox="0 0 63.8 63.8"><defs><style>.cls-1{fill:#fff;}.cls-2{fill:#fcc01a;}</style></defs><title>Asset 6</title><g id="Layer_2" data-name="Layer 2"><g id="Layer_1-2" data-name="Layer 1"><rect class="cls-1" width="63.8" height="63.8" rx="4.6"/><path class="cls-2" d="M18.54,48.51H16.46a.11.11,0,0,0-.12.12v1.22a.11.11,0,0,0,.12.12h1.38a1.31,1.31,0,0,1,.81.21.78.78,0,0,1,.27.67v.65a2.21,2.21,0,0,1,0,.39.53.53,0,0,1-.12.25.49.49,0,0,1-.27.13,2,2,0,0,1-.48,0H16a.11.11,0,0,0-.12.12v1.21a.11.11,0,0,0,.12.12h2.91a3,3,0,0,0,.79-.1,1.26,1.26,0,0,0,.57-.34,1.45,1.45,0,0,0,.34-.63,3.84,3.84,0,0,0,.11-1v-1A2.17,2.17,0,0,0,20.12,49,2.2,2.2,0,0,0,18.54,48.51Z"/><rect class="cls-2" x="21.99" y="45.61" width="1.68" height="8.16" rx="0.12"/><path class="cls-2" d="M36.57,52.32H34l-.21-.14a1.36,1.36,0,0,1-.24-.24,1.55,1.55,0,0,1-.21-.36,1.44,1.44,0,0,1-.08-.49,1.1,1.1,0,0,1,.3-.84,1.08,1.08,0,0,1,.78-.28,1.6,1.6,0,0,1,1.19.54.13.13,0,0,0,.18,0l.75-.91c.07-.06.07-.12,0-.17a2.41,2.41,0,0,0-.89-.64,3.32,3.32,0,0,0-1.45-.28,3.05,3.05,0,0,0-1.19.21,2.22,2.22,0,0,0-.83.54,2,2,0,0,0-.48.77,2.82,2.82,0,0,0-.16.92,2.32,2.32,0,0,0,.13.78,2,2,0,0,0,.32.59H30.66a1,1,0,0,1-.65-.18.61.61,0,0,1-.26-.47v-1a2,2,0,0,0-.6-1.67,2.73,2.73,0,0,0-1.72-.49H25.54a.11.11,0,0,0-.12.12v1.22a.11.11,0,0,0,.12.12h1.38a1.31,1.31,0,0,1,.81.21.78.78,0,0,1,.27.67v.65a2.21,2.21,0,0,1,0,.39.53.53,0,0,1-.12.25.49.49,0,0,1-.27.13,2,2,0,0,1-.48,0H25a.11.11,0,0,0-.12.12v1.21a.11.11,0,0,0,.12.12h2.9a2.54,2.54,0,0,0,.94-.15,1.16,1.16,0,0,0,.6-.54,1.1,1.1,0,0,0,.59.56,2.73,2.73,0,0,0,.86.13h5.64a.11.11,0,0,0,.12-.12V52.44A.11.11,0,0,0,36.57,52.32Z"/><path class="cls-2" d="M44.51,45.61H43.05a.11.11,0,0,0-.12.12v6a.71.71,0,0,1-.14.5.61.61,0,0,1-.44.14H41.26v-4.9a.11.11,0,0,0-.12-.12H39.68a.11.11,0,0,0-.12.12v4.9H37.65a.11.11,0,0,0-.12.12v1.21a.11.11,0,0,0,.12.12h5.58a1.37,1.37,0,0,0,1.08-.37,1.71,1.71,0,0,0,.32-1.14V45.73A.11.11,0,0,0,44.51,45.61Z"/><path class="cls-2" d="M40.52,56.44a.8.8,0,0,1-.25-.24.56.56,0,0,1-.11-.37.48.48,0,0,1,.14-.38.49.49,0,0,1,.37-.14.77.77,0,0,1,.57.27s.08,0,.12,0l.36-.37a.09.09,0,0,0,0-.11,1.18,1.18,0,0,0-.44-.34,1.41,1.41,0,0,0-.67-.14,1.49,1.49,0,0,0-.59.1,1.07,1.07,0,0,0-.4.28,1.11,1.11,0,0,0-.24.39,1.25,1.25,0,0,0-.07.43,1.29,1.29,0,0,0,0,.35c0,.1.08.2.12.28H39s-.07,0-.07.09v.54s0,.08.07.08h2.68a.07.07,0,0,0,.07-.08v-.54c0-.06,0-.09-.07-.09Z"/><rect class="cls-2" x="46.07" y="45.61" width="1.68" height="8.16" rx="0.12"/><path class="cls-2" d="M31.9,32.93a8.56,8.56,0,1,0-8.56-8.56A8.57,8.57,0,0,0,31.9,32.93Zm0-1.9a6.62,6.62,0,0,1-4.12-1.43,4.76,4.76,0,0,1,8.24,0A6.6,6.6,0,0,1,31.9,31ZM30,23.42a1.9,1.9,0,1,1,1.9,1.9A1.9,1.9,0,0,1,30,23.42Zm1.9-5.71a6.66,6.66,0,0,1,5.47,10.46A6.57,6.57,0,0,0,34.74,26a3.81,3.81,0,1,0-5.68,0,6.63,6.63,0,0,0-2.63,2.22A6.66,6.66,0,0,1,31.9,17.71Z"/><path class="cls-2" d="M16.46,27.21l2.53.41a12.9,12.9,0,0,0,1.48,3.58l-1.45,2a.94.94,0,0,0,.1,1.22l2.69,2.69a.94.94,0,0,0,1.22.1l2-1.45a13,13,0,0,0,3.58,1.48l.41,2.53a1,1,0,0,0,.94.8h3.8a1,1,0,0,0,.94-.8l.41-2.53a12.9,12.9,0,0,0,3.58-1.48l2,1.45a.94.94,0,0,0,1.22-.1l2.69-2.69a.94.94,0,0,0,.1-1.22l-1.45-2a12.9,12.9,0,0,0,1.48-3.58l2.53-.41a1,1,0,0,0,.8-.94v-3.8a1,1,0,0,0-.8-.94l-2.53-.41a13,13,0,0,0-1.48-3.58l1.45-2a.94.94,0,0,0-.1-1.22L42,11.59a.94.94,0,0,0-1.22-.1l-2,1.45a12.9,12.9,0,0,0-3.58-1.48l-.41-2.53a1,1,0,0,0-.94-.8H30a1,1,0,0,0-.94.8l-.41,2.53a13,13,0,0,0-3.58,1.48l-2-1.45a.94.94,0,0,0-1.22.1l-2.69,2.69A.94.94,0,0,0,19,15.5l1.45,2A13,13,0,0,0,19,21.12l-2.53.41a1,1,0,0,0-.8.94v3.8A1,1,0,0,0,16.46,27.21Zm1.11-3.93,2.36-.39a1,1,0,0,0,.78-.75,11.2,11.2,0,0,1,1.7-4.1,1,1,0,0,0,0-1.08L21,15.05l1.55-1.55,1.91,1.36a1,1,0,0,0,1.08,0,11.2,11.2,0,0,1,4.1-1.7,1,1,0,0,0,.75-.78L30.81,10H33l.39,2.36a1,1,0,0,0,.75.78,11.2,11.2,0,0,1,4.1,1.7,1,1,0,0,0,1.08,0l1.91-1.36,1.55,1.55L41.41,17a1,1,0,0,0,0,1.08,11.2,11.2,0,0,1,1.7,4.1,1,1,0,0,0,.78.75l2.36.39v2.18l-2.36.39a1,1,0,0,0-.78.75,11.2,11.2,0,0,1-1.7,4.1,1,1,0,0,0,0,1.08l1.36,1.91-1.55,1.55-1.91-1.36a1,1,0,0,0-1.08,0,11.2,11.2,0,0,1-4.1,1.7,1,1,0,0,0-.75.78L33,38.7H30.81l-.39-2.36a1,1,0,0,0-.75-.78,11.2,11.2,0,0,1-4.1-1.7,1,1,0,0,0-1.08,0l-1.91,1.36L21,33.69l1.36-1.91a1,1,0,0,0,0-1.08,11.2,11.2,0,0,1-1.7-4.1,1,1,0,0,0-.78-.75l-2.36-.39Z"/></g></g></svg>