<svg xmlns="http://www.w3.org/2000/svg" viewBox="0 0 63.8 63.8"><defs><style>.cls-1{fill:#f4f5f7;}.cls-2{fill:#ab2347;}</style></defs><title>Asset 10</title><g id="Layer_2" data-name="Layer 2"><g id="Layer_1-2" data-name="Layer 1"><rect class="cls-1" width="63.8" height="63.8" rx="4.6"/><path class="cls-2" d="M14,49.07a2.76,2.76,0,0,0-1.14-.21A2.66,2.66,0,0,0,12,49a2,2,0,0,0-.68.37,1.71,1.71,0,0,0-.45.58,1.74,1.74,0,0,0-.16.77,1.51,1.51,0,0,0,.16.71,2,2,0,0,0,.4.55,3.71,3.71,0,0,0,.54.44l.53.34a3.11,3.11,0,0,1,.41.31.38.38,0,0,1,.16.29.39.39,0,0,1-.21.33,1.35,1.35,0,0,1-.76.15H10.16a3.07,3.07,0,0,1-.53-.05,1.46,1.46,0,0,1-.48-.19.93.93,0,0,1-.35-.36,1.13,1.13,0,0,1-.14-.58,2.49,2.49,0,0,1,.12-.8,4.59,4.59,0,0,1,.27-.63.22.22,0,0,0,0-.08s0,0-.05,0l-1.09-.35q-.11,0-.15,0a4.52,4.52,0,0,0-.4,1,3.89,3.89,0,0,0-.13,1,2.21,2.21,0,0,0,.65,1.7,3,3,0,0,0,2.09.62h2.36a2.46,2.46,0,0,0,1.6-.44,1.46,1.46,0,0,0,.51-1.15,1.25,1.25,0,0,0-.17-.64,2.19,2.19,0,0,0-.42-.5,3.87,3.87,0,0,0-.55-.43l-.55-.37a2.68,2.68,0,0,1-.42-.39.63.63,0,0,1-.16-.42.54.54,0,0,1,.23-.49,1,1,0,0,1,.55-.16,1.19,1.19,0,0,1,.51.1,1.58,1.58,0,0,1,.43.28.09.09,0,0,0,.14,0l.66-.7a.25.25,0,0,0,.05-.08s0,0,0-.06A2,2,0,0,0,14,49.07Z"/><rect class="cls-2" x="20.23" y="46.58" width="1.45" height="1.19" rx="0.1"/><path class="cls-2" d="M22.79,49.31a2,2,0,0,0-.73-.52A3,3,0,0,0,21,48.6a2.54,2.54,0,0,0-1.14.23,3.35,3.35,0,0,0-.8.58s0,.09,0,.15l.59.71a.09.09,0,0,0,.14,0,2.32,2.32,0,0,1,.46-.31,1.21,1.21,0,0,1,.58-.13,1,1,0,0,1,.48.1.73.73,0,0,1,.32.25.88.88,0,0,1,.17.35,1.4,1.4,0,0,1,.05.41,2.42,2.42,0,0,1,0,.42.75.75,0,0,1-.12.27.48.48,0,0,1-.24.14,2.06,2.06,0,0,1-.39,0H18.34a1,1,0,0,1-.55-.14.52.52,0,0,1-.21-.4V48.87a.09.09,0,0,0-.1-.1H16.25a.09.09,0,0,0-.1.1v3.69c0,.21,0,.39,0,.55a1.17,1.17,0,0,1-.1.41.54.54,0,0,1-.22.25.83.83,0,0,1-.43.09h-.22a.09.09,0,0,0-.1.1v1a.09.09,0,0,0,.1.1h.47a1.83,1.83,0,0,0,1.51-.55,2.69,2.69,0,0,0,.44-1.69v-.16A.82.82,0,0,0,18,53a2.37,2.37,0,0,0,.57.06h3.06a3.11,3.11,0,0,0,.72-.08,1.06,1.06,0,0,0,.53-.31,1.41,1.41,0,0,0,.34-.62,4,4,0,0,0,.11-1,3.46,3.46,0,0,0-.12-.92A2,2,0,0,0,22.79,49.31Z"/><rect class="cls-2" x="24.4" y="46.17" width="1.41" height="6.84" rx="0.1"/><path class="cls-2" d="M26.8,44.58h-.53c-.07,0-.1,0-.1.1a.45.45,0,0,1-.06.27s-.1.07-.2.07a1.41,1.41,0,0,1-.44-.08L25,44.75l-.48-.19a1.6,1.6,0,0,0-.47-.08.76.76,0,0,0-.55.2,1.15,1.15,0,0,0-.33.6.09.09,0,0,0,.07.13l.53.17a.09.09,0,0,0,.13-.07.38.38,0,0,1,.14-.22.33.33,0,0,1,.19-.06,1,1,0,0,1,.36.08l.43.17.49.18a1.91,1.91,0,0,0,.54.08.74.74,0,0,0,.65-.29,1.28,1.28,0,0,0,.2-.77C26.9,44.61,26.87,44.58,26.8,44.58Z"/><rect class="cls-2" x="33.26" y="47.16" width="1.22" height="1.19" rx="0.1"/><rect class="cls-2" x="31.71" y="47.16" width="1.21" height="1.19" rx="0.1"/><path class="cls-2" d="M36.81,48.77H35.58a.09.09,0,0,0-.1.1v2.39a.59.59,0,0,1-.12.42.56.56,0,0,1-.38.11H31.22a.54.54,0,0,1-.37-.11.64.64,0,0,1-.11-.42V49.52a.09.09,0,0,0-.1-.1H29.41c-.07,0-.1,0-.1.1v2.22a1.41,1.41,0,0,0,.27,1,1.14,1.14,0,0,0,.91.31h5.22a1.16,1.16,0,0,0,.92-.31,1.36,1.36,0,0,0,.28-1V48.87A.09.09,0,0,0,36.81,48.77Z"/><path class="cls-2" d="M47.88,48.77H46.66a.1.1,0,0,0-.11.1v2.2c0,.13,0,.24,0,.34a.38.38,0,0,1-.06.22.26.26,0,0,1-.15.12.71.71,0,0,1-.29,0,1,1,0,0,1-.47-.1.47.47,0,0,1-.2-.45V49.6a.09.09,0,0,0-.1-.1H44c-.07,0-.1,0-.1.1v1.48a3.28,3.28,0,0,1,0,.34.53.53,0,0,1-.06.21.27.27,0,0,1-.17.12.84.84,0,0,1-.3,0,.86.86,0,0,1-.45-.11.45.45,0,0,1-.2-.43V49.6c0-.07,0-.1-.1-.1H41.41a.09.09,0,0,0-.1.1v1.51a1.17,1.17,0,0,1-.08.54c0,.09-.18.14-.37.14h-1a.52.52,0,0,1-.36-.11.59.59,0,0,1-.12-.42v-5c0-.07,0-.1-.1-.1H38.11a.09.09,0,0,0-.1.1v5.47a1.41,1.41,0,0,0,.27,1,1.13,1.13,0,0,0,.9.31h2.21a2.36,2.36,0,0,0,.8-.11.72.72,0,0,0,.42-.42.93.93,0,0,0,.38.38,1.28,1.28,0,0,0,.65.15H44a2.31,2.31,0,0,0,.78-.11.8.8,0,0,0,.43-.42.9.9,0,0,0,.37.38,1.24,1.24,0,0,0,.64.15h.56a1.13,1.13,0,0,0,.9-.31,1.41,1.41,0,0,0,.27-1V48.87A.09.09,0,0,0,47.88,48.77Z"/><path class="cls-2" d="M56.43,49.74a1.35,1.35,0,0,0-.41-.61,1.55,1.55,0,0,0-.67-.32,5.66,5.66,0,0,0-.92-.11L55.94,47a.1.1,0,0,0,0-.14l-.83-.7a.09.09,0,0,0-.13,0L52.8,48.66l-.14.16a.28.28,0,0,0-.08.15v.82c0,.07,0,.1.1.1h1.51a1.06,1.06,0,0,1,.69.18.75.75,0,0,1,.22.59v.46a1.55,1.55,0,0,1,0,.33.41.41,0,0,1-.1.21.48.48,0,0,1-.24.1,2.06,2.06,0,0,1-.39,0H51.87a1,1,0,0,1-.55-.14.56.56,0,0,1-.22-.4V48.87a.09.09,0,0,0-.1-.1H49.77a.09.09,0,0,0-.1.1v3.69a4.61,4.61,0,0,1,0,.55,1.18,1.18,0,0,1-.09.41.56.56,0,0,1-.23.25.82.82,0,0,1-.42.09h-.22c-.07,0-.1,0-.1.1v1c0,.07,0,.1.1.1h.46a1.83,1.83,0,0,0,1.51-.55,2.69,2.69,0,0,0,.44-1.69v-.16a.87.87,0,0,0,.41.28,2.52,2.52,0,0,0,.58.06h3a2.73,2.73,0,0,0,.67-.08,1.13,1.13,0,0,0,.47-.29,1.23,1.23,0,0,0,.28-.52,3.19,3.19,0,0,0,.1-.83V50.7A2.87,2.87,0,0,0,56.43,49.74Z"/><path class="cls-2" d="M15.66,37.74a1.08,1.08,0,0,0,1.08,1.08H47.06a1.08,1.08,0,0,0,1.08-1.08V8.48A1.08,1.08,0,0,0,47.06,7.4H16.74a1.08,1.08,0,0,0-1.08,1.08ZM17.82,9.56H46V27H31.2V23.2l4.15-4.12a1.1,1.1,0,0,0,0-1.53l0,0,6.14-4.61a1.08,1.08,0,1,0-1.29-1.73L33.77,16l-.21-.21a1.07,1.07,0,0,0-1.31-.17l-2.16,1.28a4.43,4.43,0,0,0,.18-1.27,4.65,4.65,0,1,0-8.33,2.83,5.19,5.19,0,0,0-1.47,2.91A31.76,31.76,0,0,0,20.12,27h-2.3Zm7.8,8.54a2.49,2.49,0,1,1,2.49-2.49,2.49,2.49,0,0,1-2.49,2.49Zm-3,3.68a3.6,3.6,0,0,1,.59-1.52h5.15a1,1,0,0,0,.55-.15l3.75-2.22.42.42L29.36,22a1.06,1.06,0,0,0-.32.77V27H22.28a30.35,30.35,0,0,1,.31-5.23ZM46,29.18v7.48H17.82V29.18Z"/><path class="cls-2" d="M43.87,31.72H24.42v-.34a1.08,1.08,0,0,0-2.16,0v.34H19.93a1.08,1.08,0,0,0,0,2.16h2.33v.33a1.08,1.08,0,0,0,2.16,0v-.33H43.87a1.08,1.08,0,1,0,0-2.16Z"/></g></g></svg>