<svg xmlns="http://www.w3.org/2000/svg" viewBox="0 0 63.8 63.8"><defs><style>.cls-1{fill:#fff;}.cls-2{fill:#6a164a;}</style></defs><title>Asset 7</title><g id="Layer_2" data-name="Layer 2"><g id="Layer_1-2" data-name="Layer 1"><rect class="cls-1" width="63.8" height="63.8" rx="4.6"/><rect class="cls-2" x="12.47" y="45.41" width="1.44" height="1.42" rx="0.12"/><rect class="cls-2" x="14.32" y="45.41" width="1.45" height="1.42" rx="0.12"/><path class="cls-2" d="M30.83,48.52H29.37a.11.11,0,0,0-.12.12v2.62c0,.16,0,.29,0,.4a.58.58,0,0,1-.07.26.34.34,0,0,1-.18.15,1,1,0,0,1-.35,0,1.13,1.13,0,0,1-.56-.13.54.54,0,0,1-.25-.53v-2a.11.11,0,0,0-.12-.12H26.25a.11.11,0,0,0-.12.12v1.77c0,.16,0,.29,0,.4a.61.61,0,0,1-.08.26.34.34,0,0,1-.2.14,1.15,1.15,0,0,1-.36,0,1.07,1.07,0,0,1-.53-.13.54.54,0,0,1-.24-.52v-2a.11.11,0,0,0-.12-.12H23.12a.11.11,0,0,0-.12.12v1.8a1.55,1.55,0,0,1-.1.65c-.06.11-.21.17-.44.17H21.39a1,1,0,0,1-.66-.17.6.6,0,0,1-.25-.48V45.53a.11.11,0,0,0-.12-.12H18.89a.11.11,0,0,0-.12.12V51c0,.17,0,.33,0,.47a1.49,1.49,0,0,1-.06.34.46.46,0,0,1-.18.21.61.61,0,0,1-.32.07h-.42l0,0-.07,0h-.37a.61.61,0,0,1-.44-.14.71.71,0,0,1-.14-.5V47.8a.11.11,0,0,0-.12-.12H15.15a.11.11,0,0,0-.12.12v.52h-1.2a3.34,3.34,0,0,0-.89.11,1.93,1.93,0,0,0-.78.4,2,2,0,0,0-.56.75,3,3,0,0,0-.21,1.2,2.9,2.9,0,0,0,.19,1.08,1.89,1.89,0,0,0,.51.72,2.09,2.09,0,0,0,.75.4,2.91,2.91,0,0,0,.89.14,2.6,2.6,0,0,0,.74-.11,1.72,1.72,0,0,0,.61-.33,1,1,0,0,0,.44.71,1.91,1.91,0,0,0,.91.18h2.43a2.91,2.91,0,0,0,.93-.12,1,1,0,0,0,.52-.48,1,1,0,0,0,.56.49,2.3,2.3,0,0,0,.78.11h1.44a2.92,2.92,0,0,0,.95-.12.9.9,0,0,0,.5-.51,1.27,1.27,0,0,0,.46.46,1.6,1.6,0,0,0,.77.17h.47a2.63,2.63,0,0,0,.93-.13.93.93,0,0,0,.51-.5,1.17,1.17,0,0,0,.45.46,1.53,1.53,0,0,0,.76.17h.66a1.41,1.41,0,0,0,1.08-.36A1.7,1.7,0,0,0,31,52.06V48.64A.11.11,0,0,0,30.83,48.52ZM15,50.6a1.1,1.1,0,0,1-.27.81,1,1,0,0,1-.72.25,1.15,1.15,0,0,1-.69-.19.81.81,0,0,1-.28-.69,1,1,0,0,1,.28-.8,1.15,1.15,0,0,1,.73-.21H15Z"/><rect class="cls-2" x="32.37" y="45.41" width="1.68" height="8.16" rx="0.12"/><path class="cls-2" d="M49,45.41H47.55a.11.11,0,0,0-.12.12v5.95a.71.71,0,0,1-.14.5.61.61,0,0,1-.44.14h-.74a.73.73,0,0,1-.52-.19.8.8,0,0,1-.22-.58V51.2a.81.81,0,0,0,0-.16,2.71,2.71,0,0,0-.72-2,3.23,3.23,0,0,0-3.9,0,2.39,2.39,0,0,0-.69,1.84V51a1.25,1.25,0,0,1-.24.85.7.7,0,0,1-.5.23h-.61a1.15,1.15,0,0,1-.66-.17.64.64,0,0,1-.25-.48V48.64a.11.11,0,0,0-.12-.12H36.22a.11.11,0,0,0-.12.12V53c0,.25,0,.47,0,.66a1.6,1.6,0,0,1-.12.49.66.66,0,0,1-.27.3,1,1,0,0,1-.5.1h-.27c-.08,0-.11,0-.11.12v1.21c0,.08,0,.12.11.12h.56a2.22,2.22,0,0,0,1.8-.65,3.21,3.21,0,0,0,.53-2v-.2a.9.9,0,0,0,.49.33,2.31,2.31,0,0,0,.68.08,3,3,0,0,0,.41,0,2.46,2.46,0,0,0,.46-.08,1.51,1.51,0,0,0,.45-.2,1,1,0,0,0,.35-.35,1.8,1.8,0,0,0,.89.57,4,4,0,0,0,1.18.17,3.76,3.76,0,0,0,1.19-.18,1.89,1.89,0,0,0,.91-.6,1.37,1.37,0,0,0,.75.58,1.64,1.64,0,0,0,.44.09,2.88,2.88,0,0,0,.41,0h1.31a1.41,1.41,0,0,0,1.08-.36,1.7,1.7,0,0,0,.32-1.15V45.53A.11.11,0,0,0,49,45.41Zm-5.55,6.52a1,1,0,0,1-.75.27.94.94,0,0,1-.73-.27,1.37,1.37,0,0,1-.25-1c0-.81.33-1.21,1-1.21s1,.4,1,1.21A1.43,1.43,0,0,1,43.46,51.93Z"/><rect class="cls-2" x="50.57" y="45.41" width="1.68" height="8.16" rx="0.12"/><path class="cls-2" d="M46.93,32.74A11,11,0,0,0,48,28,11.1,11.1,0,0,0,37.42,17a11.08,11.08,0,1,0-20.7,7.68l-1,5.19A1,1,0,0,0,16.79,31l5.26-1a11,11,0,0,0,4.18,1A11.07,11.07,0,0,0,41.6,38c5.75,1.14,5.3,1.05,5.44,1.05A.94.94,0,0,0,48,37.93ZM22.61,28.09A1,1,0,0,0,22,28l-4.18.82.82-4.11a1,1,0,0,0-.08-.62,9,9,0,0,1-1-4.16,9.19,9.19,0,0,1,17.9-2.88,11.06,11.06,0,0,0-9.58,12,9,9,0,0,1-3.27-1ZM45,32.8l.82,4.11-4.18-.82a1,1,0,0,0-.62.08,8.93,8.93,0,0,1-4.16,1,9.15,9.15,0,1,1,8.22-5,.89.89,0,0,0-.08.62Z"/></g></g></svg>